<svg xmlns="http://www.w3.org/2000/svg" xml:space="preserve" viewBox="0 0 269.47 98.81" width="152px" height="56px"><linearGradient id="a" x1="426.75" x2="416.73" y1="732.71" y2="714.04" gradientTransform="translate(-408 -677.5)" gradientUnits="userSpaceOnUse"><stop offset="0" stop-color="#0070b6"/><stop offset="1" stop-color="#1d2c5e"/></linearGradient><path fill="url(#a)" d="m5.45 38.24 12.03 20.3 4.8-4.57L9.19 34.45z" transform="translate(-5.45 -1.69)"/><path fill="#0071b9" d="m178.56 20.6-.47 2.67 5.76-1.85-.72-3.28z"/><linearGradient id="b" x1="548.93" x2="561.64" y1="694.57" y2="680.95" gradientTransform="translate(-408 -677.5)" gradientUnits="userSpaceOnUse"><stop offset="0" stop-color="#0070b6"/><stop offset="1" stop-color="#1d2c5e"/></linearGradient><path fill="url(#b)" d="m150.5 4.01-18.51 21.23 5.38-1.55 17.62-22z" transform="translate(-5.45 -1.69)"/><path fill="#1d2c5e" d="m244.06 31.34 4.54-2.42-1.3 11.38zM215.82 38.64l4.04.82 5.15-2.5-4.47-1.67z"/><linearGradient id="c" x1="493.45" x2="491.94" y1="717.29" y2="704.55" gradientTransform="translate(-408 -677.5)" gradientUnits="userSpaceOnUse"><stop offset="0" stop-color="#0070b6"/><stop offset="1" stop-color="#1d2c5e"/></linearGradient><path fill="url(#c)" d="m82.05 28.25.65 13.18 5.63-2.28-1.69-13.37z" transform="translate(-5.45 -1.69)"/><linearGradient id="d" x1="632.35" x2="631.74" y1="714.83" y2="703.34" gradientTransform="translate(-408 -677.5)" gradientUnits="userSpaceOnUse"><stop offset="0" stop-color="#125d9e"/><stop offset="1" stop-color="#1d2c5e"/></linearGradient><path fill="url(#d)" d="m225.64 24.31-4.53 2.45.16 13.57 4.57-2.34 1.43-6.57z" transform="translate(-5.45 -1.69)"/><path fill="#312370" d="m219.57 39.5-5 44.37 7.99-1.57 1.56-45.19z"/><path fill="#21386e" d="m229.35 86 .14 6.02 15.33 4.88 4.56-2.42-15.04-11.65-15.24-1.34-4.53 2.38zM172.48 75.42l3.77-2.03 2.4 4.43 3.55-1.95.7 5.85 22.29 3.95 4.46-2.45-30.73-18.72-21.8 3.74-4.25 4.04z"/><linearGradient id="e" x1="589.91" x2="576.57" y1="698.26" y2="719.49" gradientTransform="translate(-408 -677.5)" gradientUnits="userSpaceOnUse"><stop offset="0" stop-color="#125d9e"/><stop offset="1" stop-color="#1d2c5e"/></linearGradient><path fill="url(#e)" d="m170.84 22.51-4.46 2.46-8.06 49 4.51-2.35 7.74-27.51z" transform="translate(-5.45 -1.69)"/><path fill="#1d2c5e" d="m129.79 27.4-3.55 1.88.3 1.2 8.45-5.38-3.7-3.97-4.75 2.42z"/><path fill="#21386e" d="m139.5 85.27-36.33-18 4.56-3.45 36.3 19.01z"/><path fill="#1d2c5e" d="m106.58 18.27-5.5 10.45 5.8-1.77 4.2-11.12z"/><linearGradient id="f" x1="471.82" x2="480.92" y1="732.31" y2="750.2" gradientTransform="translate(-413.45 -679.19)" gradientUnits="userSpaceOnUse"><stop offset="0" stop-color="#105fa1"/><stop offset="1" stop-color="#1d2c5e"/></linearGradient><path fill="url(#f)" d="M56.63 61.42 52 64.6s.98 5.18 2.25 8.79c1.28 3.62 4.32 6.52 4.32 6.52A16.68 16.68 0 0 0 65.58 84c5.14 1.48 10.94.52 15.92-2.66 1.3-.82 3.07-2.14 4.16-3.18-4.9 2.97-29.03-16.74-29.03-16.74Z"/><path fill="#1d2c5e" d="m81.5 38.66 4.24 46.78 17.32-2.56 4.64-2.43-21.5-44.59-4.43 1.5-4.52 2.38z"/><linearGradient id="g" x1="437.49" x2="448.02" y1="726.2" y2="750.61" gradientTransform="translate(-408 -677.5)" gradientUnits="userSpaceOnUse"><stop offset="0" stop-color="#105fa1"/><stop offset="1" stop-color="#1d2c5e"/></linearGradient><path fill="url(#g)" d="m22 56.6 19.36 43.9 18.39-5.93 4.49-3.02-38.17-39.93-4.78 2.86-3.81 4.06z" transform="translate(-5.45 -1.69)"/><path fill="#1d2c5e" d="m208.38 75.63.26 2.15c1.59-.18 3.25-.38 4.67-.89 1.66-.57 5.27-2.17 6.64-3.36-.51.2-8.96 2.38-11.57 2.1M143.32 64.42l.7 3.47a26.82 26.82 0 0 0 10.05-3.82c1.97-1.17 4.13-2.95 4.82-3.42-.48.31-15.57 3.77-15.57 3.77z"/><path fill="#ffcb05" d="m40.94 94.65-1.44-3.2L21.15 50.5l-.38-.84-.83.39-.56.25-3.27 1.6-1.83-3.1-7.4-12.48-1.92-3.26 3.2-2.02a70.21 70.21 0 0 1 10.14-5.3c7.4-3.15 14.95-4.81 21.83-4.81 2.26 0 4.45.18 6.51.54 3.43.39 6.6 1.51 9.23 3.26a20.28 20.28 0 0 1 8.72 9.58c1.42 3.3 1.7 7.15.8 11.15l-.54 2.35 1.96-1.41a22.63 22.63 0 0 1 4.25-2.43c2.6-1.1 5.29-1.66 7.98-1.66 2.55 0 4.96.5 7.17 1.5l1.42.64-.14-1.56-.62-6.7-.1-1.07-1.03.27-3.11.8-.55-11.42 22.78-7.28-.19 8.88 1.72.44 4.97-9.53 14.9 13.21.62.56.6-.57a23.35 23.35 0 0 1 7.2-4.58l1.13-.46-.78-.96-2.68-3.27 17.1-19.72 8.96 13.37-13.71 7.37-3.05 1.64 3.46.07c6.5.14 12.25 2.89 16.2 7.74l1.43 1.76.92 1.13-1.53 1.63-1.02 1.08-3.42 3.65-.64.68.69.62 3.21 2.9 1.24 1.11.27-1.65 1.23-7.62.32-1.96v.01l.33-2 1.84-11.26h17.19l.13-.76.32-1.93h14.78l3.58 22.62.24 1.47 1.2-.87a20.68 20.68 0 0 1 4.76-2.58 19.7 19.7 0 0 1 6.97-1.3 17.03 17.03 0 0 1 8.1 2.01l1.12.45.13-1.2.27-2.46.08-.8-.8-.18-2.99-.67-.14-11.8 22.85 5.04 1.72 8.48 1.77.04 1.78-7.3 19.06 4.63-19.48 58.7-13.94-4.37-.1-5.41-.01-.78-.77-.1-13.91-1.97.79-7.07.18-1.68-1.5.77a19.52 19.52 0 0 1-10.98 2.1l-1.19-.14.19 1.18.98 6.22-20.3-3.58-1.06-9.22-.34-2.96-1.37 2.64-2.33 4.5-4.3-7.93-1.3-2.39-.4 2.68-.94 6.15-17.78-2.8 1.37-8.44.32-1.93-1.68 1a36.05 36.05 0 0 1-14.52 4.71l-.84.07v16.76l-35.02-17.31-1.32-.65v1.47l.03 14.8-15.66 2.3-.66-7.1-.18-1.9-1.36 1.34a22.42 22.42 0 0 1-6.93 4.66 20.18 20.18 0 0 1-7.92 1.66c-2.67 0-5.18-.56-7.46-1.65a16.13 16.13 0 0 1-8.57-10.36c-.62-2.19-.79-4.49-.5-6.86l.3-2.52L56.02 61c-1.3 1.23-2.7 2.4-4.15 3.49l-.5.36.16.6 5.27 20.25.94 3.59-3.54 1.12-9.93 3.18-3.32 1.07zM45.4 40.3a8.9 8.9 0 0 0-1.58.14l-.67.13-1 .2.3.96.2.63 2.84 9.3.28.9.42 1.33 1.05-.93.7-.62c2.75-2.48 3.72-4.99 3.13-8.16a4.6 4.6 0 0 0-2.68-3.24 6.86 6.86 0 0 0-3-.64zm76.13.3-1.77 1.73-4.68 4.54-1.02 1 1.33.5 5.01 1.94 1.54.6-.32-1.63a21.5 21.5 0 0 1-.32-6.21l.23-2.47zm20.42-5.17a7.02 7.02 0 0 0-6.13 10.4l.38.7.62 1.15.86-.97.55-.61 6.86-7.83.54-.62.87-1-1.24-.45-.77-.29a6.99 6.99 0 0 0-2.54-.48z"/><path fill="#7d7f68" d="M152.44 47.03c-.07.06-.13.13-.18.21l.2-.18-.02-.03zM158.35 41.55l3.43-3.65-1.17 1.24.03-.16-1.04 1.1-3.42 3.64 3.2 2.88.59-3.59 1.59 1.43z"/><path fill="#7d7f68" d="m158.35 41.55 3.2 2.9 1.24-7.63-1.01 1.08zM115.72 47.52l.05.02-.05-.02z"/><path fill="#c7a008" d="M134.68 50.7c.27.27.02.07.32.28l2.1-1.47a8.57 8.57 0 0 1-.9-.72c-3.04-2.77-2.25-9-.28-12.41-5.2 4.18-4.92 10.63-1.24 14.31"/><path fill="#c7a008" d="M159.97 54.18c-3.46 2.86-7.4 4.73-12.62 5.99-1.14.26-2.25.45-3.34.55-8.28.8-15.21-2.99-17.85-9.15-.33-.75-.58-1.5-.77-2.3-1.22-5.2-.18-9.83 2.38-13.46.26-.36.53-.7.8-1.04-.12.12-.26.21-.37.32-.98.87-1.85 1.83-2.6 2.88-2.56 3.64-3.6 8.28-2.37 13.46.18.8.43 1.57.75 2.3 2.64 6.17 9.58 9.97 17.84 9.16 1.1-.1 2.22-.29 3.36-.56 5.21-1.26 9.16-3.12 12.62-5.98.84-.7 1.66-1.45 2.45-2.28l-.08-.07-.2.18M101.68 38.5l9.24-12.99-.37-.35-8.92 12.53zM162.79 36.82l-1.23 7.62-1.6-1.43-.57 3.6-3.21-2.89 3.42-3.64 1.04-1.1-.03.16 1.17-1.24zM151.37 15.42l3.24-1.38-5.91-7.59-1.94 2.7zM61.78 34.23c-14.93-18.19-41.84-8.41-51.52.1l.38.65a63.42 63.42 0 0 1 7.04-3.46c9.6-4.1 18.77-5.3 26.1-4.02 2.6.3 5.36 1.06 7.75 2.67a16.5 16.5 0 0 1 7.29 7.87c2.6 6 .31 13.96-5.83 20.63 7.7-7.07 12.96-13.82 8.8-24.44zM92.26 55.43c-.07-.33-.14-.66-.25-.98a12.45 12.45 0 0 0-5.02-7.05c-3.83-2.6-9.18-3.14-14.52-.89a20.08 20.08 0 0 0-7.17 5.31 19.66 19.66 0 0 1 5-3.13c5.33-2.26 10.68-1.72 14.53.88a12.55 12.55 0 0 1 5.26 8.05c.23 1.15.34 2.3.3 3.5a18.36 18.36 0 0 1-4.64 11.34 20.02 20.02 0 0 0 3.24-3.53 18.24 18.24 0 0 0 3.56-10c.05-1.16-.05-2.35-.3-3.5"/><path fill="#c7a008" d="M77.55 51c-.02.02 2.17-2.18 2.14-2.18-2.74-.1-3.9 2.48-3.99 2.68a5.4 5.4 0 0 1 1.85-.5M82.7 54.15a3.91 3.91 0 0 1-.18 2.76c.43-.23 3.6-1.76 2.37-5.01.07.1-2.26 2.24-2.19 2.25M70.25 55.96c0-1.34 2.3-4.59 3.01-5.67-3.62 2.3-5.18 5.4-5.18 7.85 0 4.19 3.68 7.56 8.09 7.56 2.08 0 5.9-1.1 8.38-5.14-1.3.86-4.62 2.92-6.37 2.92-4.4 0-7.93-3.31-7.93-7.52M101.23 59.8l.06 16.94 2.69.16-.54-19.33zM85.78 27.51l.06 1.5 12.75-3.79.95 16.24 2.12-2.99-.45-16.29zM124.33 33.32l-11.98-10.99-1.43 3.18 10.54 9.9zM122.51 53.81l-14.06-4.65-2.05 2.17 14 5.6c1.6 3 4 5.56 7.04 7.44a23 23 0 0 0 9.84 3.21v6.92l2.17 1.08.69-10.4-17.63-11.37zM145.1 51.86c3.45-.84 5.44-2.64 7.16-4.62-1.3 1.06-7.74 2.46-8.83 2.83l-2.12 2.26c.97.09 2.6-.17 3.78-.47M138.81 27.94c-6.37.84-9.69 6.18-10.23 6.83a20.72 20.72 0 0 1 8.62-4.24c7.88-1.9 14.83.5 19.12 5.8l2.66-2.25c-4.26-5.21-12.29-8.04-20.17-6.14M160.17 54c.77-.65 2.14-1.3 2.86-2.06l-8.52-7.62c-.66.78-1.25 2.07-2.05 2.74l7.71 6.94zM203.94 74.42c-8.95-7.36-8.41-23.12-4.02-28.13l-3.94-24.71-8.63 1.11-.38 2.18h6.52l3.46 22.42c-4.4 5.02-6.52 11.74-5.05 17.9a16.32 16.32 0 0 0 9.57 11.46l.06.33 2.56.4s.27-2.75-.15-2.96zM169.55 25.21l-.37 2.18H179l2.9 15.88 2.18-2.2-2.3-16.77zM186.39 56.04l-3.18 8.2.79 2.14 4.54-12.49zM176.96 50.87l-2.2 2.2-2.33 14.8 2.24.86zM221.12 46.15a11.5 11.5 0 0 1 3.21 3.46 12.24 12.24 0 0 1 1.46 3.55c1.08 4.46-.2 9.27-3.04 13.14-.28.39-.6.77-.9 1.14 1.15-.99 15.12-11.3 1.48-24.82-15.01-4.95-20.7 4.84-21.23 5.46a18.7 18.7 0 0 1 5.4-3.22c5.08-1.92 10.08-1.26 13.62 1.29"/><path fill="#c7a008" d="M213.56 47.12c.04.1 2.15-2.2 2.2-2.2-2.68.11-3.96 1.4-3.83 2a3.6 3.6 0 0 0-.39.7c.57-.28 1.62-.5 2.02-.5M218.58 50.48c.1.36.14.73.13 1.14-.02.51-.16.98-.35 1.43.4-.19 3.64-1.2 2.4-4.75.04.1-2.22 2.18-2.18 2.18M211.49 61.79c3.02.13 6.36-1.73 8.75-5-6.14 1.25-12.6-8.98-11.96-9.99-2.32 1.69-4.38 4.94-4.47 7.2-.16 4.21 3.27 7.61 7.68 7.79M245.18 88.46l1.44.96 17.59-52.78-13.16-3.04-.17 3.1 10.62 2.35zM224.29 27.94l.12 2.95 13.99 2.81 5.39 25.55 2.18-2.2-5.13-25.8zM235.06 57.06l-3.85 21.8 2.22.71 3.82-24.66zM53.45 86.85 46.9 63.11l-2.4 1.68 6.07 22.74zM51.75 51.16c-1.51 1.6-4.86 4.72-6.77 5.95l-1.16-3.72-2.53-8.15-1.61-5.52-1.58 2.02 1.6 5.52 2.54 8.15 1.16 3.73c2.6-1.69 6.4-4.84 8.35-7.98"/><path fill="#7d7f68" d="M144.5 37.13c-2.07-.8-5-.56-6.57 1.17-.37.4-1.09 1.43-1.31 1.88 1.53-1.21 4.25-1.48 6.04-.83l1.84-2.22zM49.86 44.5c-.24-1.23-1.43-2.2-2.02-2.46-1.04-.51-2.86-.59-4.18-.35l.63 2.18c.53.08 1.42.24 1.88.45.58.28 1.6.94 1.83 2.17.32 1.63.23 3.17-.45 4.41 1.87-1.84 2.78-3.84 2.3-6.4"/><path fill="#3c5aa6" d="M53.14 44.46c-.9-4.83-7.21-7.48-13.46-4.07l1.6 5.52 2.54 8.16 1.16 3.71c4.7-3.01 9.4-6.64 8.16-13.32zm-6.21 7.42-2.19-7.04-.65-2.24a6 6 0 0 1 3.65.36c.59.28 1.62.93 1.84 2.17.52 2.77-.42 4.75-2.65 6.75z"/><path fill="#3567b0" d="M147.77 36.8a8.57 8.57 0 1 0-10.67 13.38l11.28-12.77c-.2-.21-.4-.42-.6-.6zm-10.65 8.99a5.53 5.53 0 0 1 6.86-7.82l-6.86 7.82z"/><path fill="#1e2d5f" d="m162.84 35.4-6.24 6.02 5.93 5.32z"/><path fill="#3466af" d="M220.75 48.3c.1.37.14.75.13 1.15-.1 2.38-2.35 4.23-5.02 4.1-2.67-.1-4.77-2.12-4.67-4.5.1-2.23 2.08-4 4.54-4.1-.47-.11-.96-.17-1.46-.19-4.48-.19-8.13 2.98-8.29 6.92-.17 4.22 3.21 7.66 7.61 7.85 4.48.18 8.14-3 8.31-7.2a6.9 6.9 0 0 0-1.15-4.03"/><linearGradient id="h" x1="639.71" x2="655.63" y1="-982.77" y2="-982.77" gradientTransform="matrix(1 0 0 -1 -569.45 -926.69)" gradientUnits="userSpaceOnUse"><stop offset="0" stop-color="#3c5aa6"/><stop offset=".93" stop-color="#2b73b9"/><stop offset="1" stop-color="#2a75bb"/></linearGradient><path fill="url(#h)" d="M85.05 53.11c0 2.4-2.18 4.32-4.84 4.32-2.68 0-4.85-1.92-4.85-4.32 0-2.23 1.9-4.07 4.36-4.29a8.18 8.18 0 0 0-1.46-.13c-4.48 0-8 3.32-8 7.27 0 4.21 3.52 7.52 7.92 7.52 4.48 0 8-3.31 8-7.52a6.7 6.7 0 0 0-1.3-3.97c.1.34.17.72.17 1.12"/><g transform="translate(-5.45 -1.69)"><linearGradient id="i" x1="573.18" x2="838.92" y1="-974.57" y2="-974.57" gradientTransform="matrix(1 0 0 -1 -564 -925)" gradientUnits="userSpaceOnUse"><stop offset="0" stop-color="#3c5aa6"/><stop offset=".93" stop-color="#2b73b9"/><stop offset="1" stop-color="#2a75bb"/></linearGradient><path fill="url(#i)" d="m254.02 30.6-1.99 8.18-1.83-9.06-24.56-5.4.17 13.65 3.7.83-.26 2.46c-.05-.02-.08-.04-.1-.07-4.6-2.42-10.28-2.67-15.64-.64-1.8.68-3.46 1.59-4.97 2.69l-3.7-23.4H188.5l-.45 2.7h-17.19l-1.96 12.02-1.43-1.76a22 22 0 0 0-16.9-8.08l14.6-7.84L155 1.68l-18.38 21.2 3.17 3.87a24.24 24.24 0 0 0-7.47 4.75l-15.77-14-5.5 10.57.2-10.15L86.6 25.8l.63 13.24 4.2-1.09.62 6.71c-4.8-2.15-10.55-2.1-15.9.16a23.55 23.55 0 0 0-4.41 2.53c.92-4.1.7-8.12-.86-11.72a21.09 21.09 0 0 0-9.05-9.97 21.7 21.7 0 0 0-9.57-3.4c-8.53-1.5-18.77.03-28.85 4.33a71.1 71.1 0 0 0-10.28 5.36l-3.94 2.5 2.38 4.02 7.38 12.48s2.26 3.83 2.28 3.82l4-1.96.55-.25 18.35 40.96 1.77 3.93 4.1-1.32 9.93-3.18 4.35-1.38-1.15-4.43-5.27-20.25a44.47 44.47 0 0 0 4.24-3.56c-.3 2.42-.14 4.87.53 7.22 1.38 4.9 4.59 8.78 9.05 10.93 4.82 2.31 10.7 2.32 16.13.01a23.46 23.46 0 0 0 7.2-4.85l.76 8.06 17.39-2.56-.03-15.6 36.34 17.97V67.1a36.93 36.93 0 0 0 14.91-4.83l-1.53 9.34 19.6 3.09 1.07-7.05 5.12 9.45 3.12-6.03 1.15 9.9 22.21 3.91-1.18-7.47a20.11 20.11 0 0 0 11.5-2.19l-.9 7.96 14.8 2.08.1 6.06 15.42 4.84 20.07-60.5-20.9-5.07zm-86.8 8.99 1.03-1.09-1.23 7.63-3.22-2.89 3.43-3.65zM154.22 8.43l5.38 7.31-15.39 7.63-1.06-1.61 11.07-13.33zM52.32 64.81l6.14 23.55-9.94 3.18L28.13 46c-1.1.59-3.15 1.56-5.03 2.49L15.7 36a64.32 64.32 0 0 1 9.58-4.98c9.62-4.09 18.79-5.3 26.12-4.01 2.6.3 5.34 1.06 7.75 2.65 3.3 1.86 5.83 4.5 7.28 7.88 3.55 8.2-2.38 20.01-14.12 27.26zM98 60.6c-.11 3.51-1.4 7.03-3.56 10a19.9 19.9 0 0 1-8.28 6.7c-8.62 3.65-17.24 0-19.55-8.18-2.23-7.92 2.96-17.34 11.31-20.94 5.34-2.25 10.7-1.71 14.52.9a12.46 12.46 0 0 1 5.02 7.04 14.38 14.38 0 0 1 .54 4.49zm46.9 16.66-36.05-18.03.06 18.9-9.33 1.26-.65-7.79c2.88-4.93 3.94-10.75 2.43-16.09A16.9 16.9 0 0 0 96.94 48l-1.33-15.88-4.2 1.09-.18-4.01 14.98-4.46.92 15.44 11.03-15.5 10.79 10.27-15.09 15.9 14.18 5.6c1.58 3 4 5.55 7.02 7.43a22.93 22.93 0 0 0 9.84 3.23v10.16zm-18.72-26.13-5.01-1.93 4.67-4.55c-.2 2.1-.1 4.27.34 6.48zm39.24 4.73c-3.46 2.86-7.4 4.73-12.62 5.98-1.14.27-2.25.46-3.34.55-8.28.81-15.21-2.98-17.85-9.14-.33-.75-.58-1.5-.77-2.31-1.22-5.19-.18-9.83 2.39-13.46a16.33 16.33 0 0 1 2.6-2.9 20.7 20.7 0 0 1 9-4.56c7.87-1.9 14.81.5 19.07 5.73l-15.02 15.98c1.02.2 2.64-.07 3.83-.36 3.58-.87 5.58-2.77 7.34-4.84l6 5.4 1.82 1.64c-.79.82-1.61 1.59-2.45 2.29zm31.85 21.32L194 55.56l-4.61 11.93-6.92-14.91h-.08l-2.73 17.27-11.53-2 1.62-9.64c.44-.41.87-.82 1.29-1.26l3.73-3.84-3.63-3.25L175 26.9h11.63l2.91 15.9 3.26-18.43h8.32l3.45 22.44c-4.39 5-6.52 11.73-5.06 17.89a16.38 16.38 0 0 0 9.59 11.46l.44 2.9-12.27-1.87zM226 70.15c-1.28.9-2.67 1.67-4.18 2.22a15.54 15.54 0 0 1-8.55.85 12.77 12.77 0 0 1-4.96-2.11 12.38 12.38 0 0 1-4.77-7.25c-.88-3.73-.07-7.72 1.94-11.2a18.95 18.95 0 0 1 9.64-8.29c5.08-1.9 10.1-1.24 13.62 1.3a11.94 11.94 0 0 1 4.67 7c1.08 4.48-.2 9.27-3.03 13.14a19.5 19.5 0 0 1-4.38 4.34zm25.95 20.39L243.43 88l-.75-31.43-4.28 24.25-9.3-1.49.66-6.98c6.08-5.13 9.3-13.22 7.53-20.56a16.13 16.13 0 0 0-4.8-8.22l.79-8.24-3.52-.93.24-4.4 16.02 3.22 5.38 25.55 5.53-22.9 12.19 2.69-17.17 51.98z"/></g><g font-family="Arial" font-size="4" font-weight="400" letter-spacing="0" style="line-height:125%;-inkscape-font-specification:Arial" word-spacing="0"><path d="M254.1 90.9v-2.52h-.94v-.34h2.27v.34h-.95v2.52zM255.8 90.9v-2.86h.57l.68 2.03.14.42.15-.46.69-1.99h.5v2.86h-.36v-2.4l-.83 2.4H257l-.83-2.43v2.43z" transform="matrix(.94 0 0 .94 14.8 6.43)"/></g></svg>

